<svg width="24" height="23" viewBox="0 0 24 23" fill="none" xmlns="http://www.w3.org/2000/svg">
<path id="Vector" d="M21.3036 3.60217C20.766 3.06436 20.1278 2.63773 19.4253 2.34665C18.7228 2.05558 17.9699 1.90576 17.2095 1.90576C16.4491 1.90576 15.6961 2.05558 14.9936 2.34665C14.2912 2.63773 13.6529 3.06436 13.1153 3.60217L11.9997 4.71779L10.8841 3.60217C9.79827 2.51634 8.32556 1.90632 6.78997 1.90632C5.25437 1.90632 3.78167 2.51634 2.69584 3.60217C1.61001 4.688 1 6.1607 1 7.69629C1 9.23189 1.61001 10.7046 2.69584 11.7904L3.81147 12.906L11.9997 21.0943L20.188 12.906L21.3036 11.7904C21.8414 11.2529 22.268 10.6146 22.5591 9.91213C22.8502 9.20964 23 8.45669 23 7.69629C23 6.93589 22.8502 6.18294 22.5591 5.48046C22.268 4.77798 21.8414 4.13972 21.3036 3.60217Z" stroke="#203136" stroke-width="2" stroke-linecap="round" stroke-linejoin="round"/>
</svg>
