<svg width="31" height="29" viewBox="0 0 31 29" fill="none" xmlns="http://www.w3.org/2000/svg">
<path id="Vector" d="M6.94535 3.73844C6.94495 4.55619 6.6197 5.34029 6.04118 5.91823C5.46265 6.49618 4.67823 6.82064 3.86048 6.82023C3.04273 6.81982 2.25863 6.49458 1.68068 5.91605C1.10274 5.33753 0.778278 4.55311 0.778687 3.73536C0.779096 2.91761 1.10434 2.13351 1.68286 1.55556C2.26139 0.977614 3.04581 0.653156 3.86356 0.653565C4.68131 0.653974 5.46541 0.979216 6.04336 1.55774C6.6213 2.13627 6.94576 2.92069 6.94535 3.73844ZM7.03785 9.10344H0.871187V28.4051H7.03785V9.10344ZM16.7812 9.10344H10.6454V28.4051H16.7195V18.2764C16.7195 12.6339 24.0733 12.1097 24.0733 18.2764V28.4051H30.1629V16.1797C30.1629 6.66761 19.2787 7.02219 16.7195 11.6934L16.7812 9.10344Z" fill="#203136"/>
</svg>
