<svg width="29" height="30" viewBox="0 0 29 30" fill="none" xmlns="http://www.w3.org/2000/svg">
<path id="Vector" d="M14.8538 0.919189C7.06499 0.919189 0.743652 7.24053 0.743652 15.0293C0.743652 22.8181 7.06499 29.1395 14.8538 29.1395C22.6426 29.1395 28.9639 22.8181 28.9639 15.0293C28.9639 7.24053 22.6426 0.919189 14.8538 0.919189ZM21.4009 10.5141C21.1892 12.7435 20.2721 18.1618 19.8064 20.6593C19.6089 21.7175 19.2138 22.0703 18.847 22.1126C18.0286 22.1832 17.4077 21.5764 16.6176 21.0544C15.3759 20.236 14.6704 19.728 13.471 18.9378C12.0741 18.0207 12.9771 17.5127 13.7814 16.6943C13.9931 16.4827 17.6053 13.195 17.6758 12.8987C17.6856 12.8538 17.6843 12.8072 17.672 12.763C17.6597 12.7187 17.6368 12.6781 17.6053 12.6447C17.5206 12.5742 17.4077 12.6024 17.309 12.6165C17.182 12.6447 15.2065 13.957 11.3545 16.5532C10.7901 16.9342 10.2821 17.1317 9.83058 17.1176C9.32262 17.1035 8.36313 16.8354 7.64351 16.5956C6.75457 16.3133 6.06317 16.1581 6.11962 15.6643C6.14784 15.4103 6.50059 15.1563 7.16377 14.8882C11.2839 13.0962 14.0213 11.911 15.39 11.3466C19.3126 9.70981 20.1169 9.4276 20.6531 9.4276C20.7659 9.4276 21.034 9.45582 21.2034 9.59692C21.3445 9.70981 21.3868 9.86502 21.4009 9.9779C21.3868 10.0626 21.415 10.3165 21.4009 10.5141Z" fill="#203136"/>
</svg>
