<svg width="37" height="37" viewBox="0 0 37 37" fill="none" xmlns="http://www.w3.org/2000/svg">
<g id="mdi:twitter">
<path id="Vector" d="M34.6024 9.0293C33.4474 9.5543 32.2024 9.8993 30.9124 10.0643C32.2324 9.2693 33.2524 8.0093 33.7324 6.4943C32.4874 7.2443 31.1074 7.7693 29.6524 8.0693C28.4674 6.7793 26.8024 6.0293 24.9124 6.0293C21.3874 6.0293 18.5074 8.9093 18.5074 12.4643C18.5074 12.9743 18.5674 13.4693 18.6724 13.9343C13.3324 13.6643 8.57741 11.0993 5.41241 7.2143C4.85741 8.1593 4.54241 9.2693 4.54241 10.4393C4.54241 12.6743 5.66741 14.6543 7.40741 15.7793C6.34241 15.7793 5.35241 15.4793 4.48241 15.0293V15.0743C4.48241 18.1943 6.70241 20.8043 9.64241 21.3893C8.6985 21.6476 7.70755 21.6836 6.74741 21.4943C7.15482 22.773 7.95272 23.8919 9.02894 24.6937C10.1052 25.4955 11.4056 25.9398 12.7474 25.9643C10.4729 27.765 7.65341 28.7383 4.75241 28.7243C4.24241 28.7243 3.73241 28.6943 3.22241 28.6343C6.07241 30.4643 9.46241 31.5293 13.0924 31.5293C24.9124 31.5293 31.4074 21.7193 31.4074 13.2143C31.4074 12.9293 31.4074 12.6593 31.3924 12.3743C32.6524 11.4743 33.7324 10.3343 34.6024 9.0293Z" fill="#203136"/>
</g>
</svg>
